<?xml version="1.0" standalone="no"?>
<svg xmlns="http://www.w3.org/2000/svg" viewBox="0 0 192.697 36" width="192.697" height="36"><g fill="#000000" color="#000000" transform="translate(0 6.239999999999998) scale(0.5600001)"><svg width="50.0" height="42.0" x="0.0" y="0.0" viewBox="0 0 50 42"><path fill="currentColor" fill-rule="nonzero" d="M21.3 13.56l5.81 12.46-10.95-2.3-5.81-12.46 10.95 2.3zm20.86-9.73l5.81 12.46-10.95-2.3-5.81-12.46 10.95 2.3zm-8.91 36.83L8.44 36.19 16 24.99l12.1 2.54c.05.01.09.01.13.01.09 0 .18-.02.27-.06.01 0 .01-.01.01-.01.03-.01.05-.04.08-.06.03-.02.05-.05.08-.07.03-.03.07-.05.09-.08l8.11-12.01 11.19 2.35-14.81 23.06zm16.45-23.3c.01-.02.02-.03.03-.05.01-.05-.02-.08-.03-.13 0-.07.01-.13-.02-.2-.01-.02.01-.05-.01-.07L43.19 3c-.01-.02-.03-.02-.03-.03-.04-.07-.11-.11-.18-.16-.07-.05-.12-.11-.2-.14-.02-.01-.02-.02-.04-.03L30.22.01c-.04-.01-.08.03-.13.03-.07 0-.13 0-.19.02-.03.01-.06-.01-.08 0-.01.01-.02.03-.03.03-.05.03-.08.07-.12.12-.03.03-.08.03-.11.07l-8.11 12.01-12.1-2.54c-.05-.01-.08.02-.13.02-.07 0-.12 0-.19.02-.03.01-.06-.01-.08.01-.02.01-.02.03-.03.03-.05.03-.08.07-.12.12-.03.03-.08.03-.11.07L.34 22.37c-.02.02 0 .05-.02.08-.04.08-.04.15-.05.23-.01.08-.02.16.01.24.02.03 0 .05.01.08l6.49 13.91c.01.02.03.03.05.05.02.04.04.06.07.09.03.03.05.06.08.08.01.01.01.03.02.04 0 0 .01 0 .01.01.05.03.11.04.17.05.03.01.04.04.06.04l26.2 4.72a.61.61 0 0 0 .48-.12c.03-.02.05-.05.08-.07.03-.03.07-.05.1-.09l15.54-24.18c.02-.02 0-.05.01-.07.02-.04.03-.07.05-.1z"></path></svg></g><path fill="#000000" fill-rule="nonzero" d="M5.30 21.86Q2.50 21.86 1.25 20.47Q0 19.08 0 15.98L0 15.98L0 13.97L4.06 13.97L4.06 16.54Q4.06 18.07 5.04 18.07L5.04 18.07Q5.59 18.07 5.81 17.75Q6.02 17.42 6.02 16.66L6.02 16.66Q6.02 15.65 5.78 14.99Q5.54 14.33 5.17 13.88Q4.80 13.44 3.84 12.50L3.84 12.50L2.06 10.73Q0 8.71 0 6.26L0 6.26Q0 3.62 1.21 2.24Q2.42 0.86 4.75 0.86L4.75 0.86Q7.54 0.86 8.76 2.34Q9.98 3.82 9.98 6.96L9.98 6.96L5.78 6.96L5.76 5.54Q5.76 5.14 5.53 4.90Q5.30 4.66 4.90 4.66L4.90 4.66Q4.42 4.66 4.18 4.92Q3.94 5.18 3.94 5.64L3.94 5.64Q3.94 6.65 5.09 7.73L5.09 7.73L7.49 10.03Q8.33 10.85 8.88 11.58Q9.43 12.31 9.77 13.31Q10.10 14.30 10.10 15.67L10.10 15.67Q10.10 18.72 8.99 20.29Q7.87 21.86 5.30 21.86L5.30 21.86ZM16.51 21.86Q11.26 21.86 11.26 16.42L11.26 16.42L11.26 9.36Q11.26 6.86 12.66 5.39Q14.06 3.91 16.51 3.91L16.51 3.91Q18.96 3.91 20.36 5.39Q21.77 6.86 21.77 9.36L21.77 9.36L21.77 16.42Q21.77 21.86 16.51 21.86L16.51 21.86ZM16.51 18.62Q17.02 18.62 17.26 18.26Q17.50 17.90 17.50 17.28L17.50 17.28L17.50 8.69Q17.50 7.15 16.51 7.15L16.51 7.15Q15.53 7.15 15.53 8.69L15.53 8.69L15.53 17.28Q15.53 17.90 15.77 18.26Q16.01 18.62 16.51 18.62L16.51 18.62ZM23.71 21.67L23.71 8.06L22.97 8.06L22.99 4.87L23.71 4.87L23.71 3.67Q23.71 0.84 26.54 0.84L26.54 0.84Q27.89 0.84 28.70 1.18L28.70 1.18L28.70 3.77Q28.46 3.70 28.32 3.70L28.32 3.70Q27.98 3.70 27.89 3.94Q27.79 4.18 27.79 4.66L27.79 4.66L27.79 4.87L28.70 4.87L28.70 8.11L27.89 8.11L27.89 21.67L23.71 21.67ZM33.67 21.86Q32.02 21.86 31.39 21.17Q30.77 20.47 30.77 18.94L30.77 18.94L30.77 7.97L29.59 7.97L29.59 4.78L30.77 4.78L30.77 1.06L34.85 1.06L34.85 4.78L36.05 4.78L36.05 7.97L34.85 7.97L34.85 17.83Q34.85 18.29 34.92 18.50Q34.99 18.72 35.30 18.72L35.30 18.72Q35.54 18.72 35.76 18.70Q35.98 18.67 36.05 18.67L36.05 18.67L36.05 21.55Q35.69 21.65 35.00 21.76Q34.32 21.86 33.67 21.86L33.67 21.86ZM43.87 21.67L39.22 21.67L37.08 4.10L40.68 4.10L41.86 13.54L42.86 4.10L46.54 4.10L47.74 13.54L48.72 4.10L52.68 4.10L50.42 21.67L46.22 21.67L44.98 11.69L43.87 21.67ZM57.26 21.86Q55.22 21.86 54.47 20.51Q53.71 19.15 53.71 16.63L53.71 16.63Q53.71 14.57 54.25 13.46Q54.79 12.36 55.75 11.84Q56.71 11.33 58.68 10.70L58.68 10.70L59.83 10.32L59.83 10.27L59.83 8.52Q59.83 7.82 59.56 7.45Q59.28 7.08 58.90 7.08L58.90 7.08Q58.56 7.08 58.31 7.39Q58.06 7.70 58.06 8.23L58.06 8.23L58.06 9.29L53.98 9.29L53.98 8.71Q53.98 6.12 55.19 5.02Q56.40 3.91 59.14 3.91L59.14 3.91Q61.32 3.91 62.69 5.05Q64.06 6.19 64.06 8.28L64.06 8.28L64.06 21.67L59.88 21.67L59.88 19.58Q59.57 20.66 58.88 21.26Q58.20 21.86 57.26 21.86L57.26 21.86ZM58.92 18.60Q59.40 18.60 59.60 18.20Q59.81 17.81 59.81 17.23L59.81 17.23L59.81 12.34Q58.87 12.70 58.43 13.25Q57.98 13.80 57.98 14.78L57.98 14.78L57.98 17.04Q57.98 18.60 58.92 18.60L58.92 18.60ZM65.66 21.67L65.66 4.10L69.86 4.10L69.86 6.05Q70.18 5.02 70.96 4.45Q71.74 3.89 72.89 3.89L72.89 3.89L72.89 7.39Q72 7.39 70.93 7.64Q69.86 7.90 69.86 8.23L69.86 8.23L69.86 21.67L65.66 21.67ZM78.84 21.86Q76.13 21.86 74.95 20.38Q73.78 18.89 73.78 15.94L73.78 15.94L73.78 8.88Q73.78 6.46 75.17 5.18Q76.56 3.91 79.06 3.91L79.06 3.91Q84.12 3.91 84.12 8.88L84.12 8.88L84.12 10.15Q84.12 12.07 84.07 13.27L84.07 13.27L77.98 13.27L77.98 16.68Q77.98 17.59 78.17 18.11Q78.36 18.62 78.98 18.62L78.98 18.62Q79.46 18.62 79.67 18.34Q79.87 18.05 79.91 17.68Q79.94 17.30 79.94 16.58L79.94 16.58L79.94 14.88L84.12 14.88L84.12 15.89Q84.12 18.96 82.93 20.41Q81.74 21.86 78.84 21.86L78.84 21.86ZM77.95 11.18L79.94 11.18L79.94 8.93Q79.94 7.03 79.01 7.03L79.01 7.03Q77.95 7.03 77.95 8.93L77.95 8.93L77.95 11.18ZM99.70 21.67L91.32 21.67L91.32 1.06L95.45 1.06L95.45 18.17L99.70 18.17L99.70 21.67ZM104.95 2.93L100.75 2.93L100.75 0L104.95 0L104.95 2.93ZM104.95 21.67L100.75 21.67L100.75 4.10L104.95 4.10L104.95 21.67ZM113.40 21.86Q111.67 21.86 110.93 19.80L110.93 19.80L110.93 21.67L106.61 21.67L106.61 0.94L110.93 0.94L110.93 4.94Q111.94 3.91 113.28 3.91L113.28 3.91Q115.32 3.91 116.21 5.12Q117.10 6.34 117.10 8.62L117.10 8.62L117.10 17.09Q117.10 19.25 116.18 20.56Q115.27 21.86 113.40 21.86L113.40 21.86ZM111.98 18.60Q112.42 18.60 112.60 18.32Q112.78 18.05 112.81 17.63Q112.85 17.21 112.85 16.32L112.85 16.32L112.85 9Q112.85 8.06 112.68 7.61Q112.51 7.15 111.96 7.15L111.96 7.15Q111.36 7.15 111.14 7.61Q110.93 8.06 110.93 8.95L110.93 8.95L110.93 16.32Q110.93 17.47 111.12 18.04Q111.31 18.60 111.98 18.60L111.98 18.60ZM118.63 21.67L118.63 4.10L122.83 4.10L122.83 6.05Q123.14 5.02 123.92 4.45Q124.70 3.89 125.86 3.89L125.86 3.89L125.86 7.39Q124.97 7.39 123.90 7.64Q122.83 7.90 122.83 8.23L122.83 8.23L122.83 21.67L118.63 21.67ZM130.08 21.86Q128.04 21.86 127.28 20.51Q126.53 19.15 126.53 16.63L126.53 16.63Q126.53 14.57 127.07 13.46Q127.61 12.36 128.57 11.84Q129.53 11.33 131.50 10.70L131.50 10.70L132.65 10.32L132.65 10.27L132.65 8.52Q132.65 7.82 132.37 7.45Q132.10 7.08 131.71 7.08L131.71 7.08Q131.38 7.08 131.12 7.39Q130.87 7.70 130.87 8.23L130.87 8.23L130.87 9.29L126.79 9.29L126.79 8.71Q126.79 6.12 128.00 5.02Q129.22 3.91 131.95 3.91L131.95 3.91Q134.14 3.91 135.50 5.05Q136.87 6.19 136.87 8.28L136.87 8.28L136.87 21.67L132.70 21.67L132.70 19.58Q132.38 20.66 131.70 21.26Q131.02 21.86 130.08 21.86L130.08 21.86ZM131.74 18.60Q132.22 18.60 132.42 18.20Q132.62 17.81 132.62 17.23L132.62 17.23L132.62 12.34Q131.69 12.70 131.24 13.25Q130.80 13.80 130.80 14.78L130.80 14.78L130.80 17.04Q130.80 18.60 131.74 18.60L131.74 18.60ZM138.48 21.67L138.48 4.10L142.68 4.10L142.68 6.05Q142.99 5.02 143.77 4.45Q144.55 3.89 145.70 3.89L145.70 3.89L145.70 7.39Q144.82 7.39 143.75 7.64Q142.68 7.90 142.68 8.23L142.68 8.23L142.68 21.67L138.48 21.67ZM146.40 24.60L146.40 21.94L148.42 21.94Q148.85 21.94 148.85 21.58L148.85 21.58Q148.85 21.41 148.82 21.31L148.82 21.31L146.09 4.10L150.10 4.10L150.89 12.67L151.27 17.04L151.73 12.67L152.66 4.10L156.70 4.10L153.43 22.58Q153.26 23.62 152.75 24.11Q152.23 24.60 151.13 24.60L151.13 24.60L146.40 24.60Z" transform="translate(36, 7.164)"></path></svg>